<?xml version="1.0" encoding="utf-8"?>
<!-- Generator: Adobe Illustrator 26.4.1, SVG Export Plug-In . SVG Version: 6.00 Build 0)  -->
<svg version="1.1" id="Layer_1" xmlns="http://www.w3.org/2000/svg" xmlns:xlink="http://www.w3.org/1999/xlink" x="0px" y="0px"
	 viewBox="0 0 48 48" style="enable-background:new 0 0 48 48;" xml:space="preserve">
<style type="text/css">
	.st0{clip-path:url(#SVGID_00000145030504180357192690000012685138770759709091_);}
	.st1{fill:url(#SVGID_00000143597652598809824240000005029276424682794884_);}
	.st2{fill-rule:evenodd;clip-rule:evenodd;fill:url(#SVGID_00000150782349071166606150000012556528288137163930_);}
	.st3{clip-path:url(#SVGID_00000051368156102287856080000000888793702257876407_);}
	.st4{fill:url(#SVGID_00000022531402935474212750000007150994249517098652_);}
	.st5{fill:url(#SVGID_00000081618720831610072590000006979679683706100144_);}
	.st6{fill-rule:evenodd;clip-rule:evenodd;fill:url(#SVGID_00000181772363789648042900000005224774508361928611_);}
	.st7{fill:url(#SVGID_00000054948204871615593530000016006554934015600042_);}
	.st8{fill:url(#SVGID_00000071546461776668882770000006720558282940601486_);}
	.st9{fill:url(#SVGID_00000030453353937849191810000009525937137822536349_);}
	.st10{fill-rule:evenodd;clip-rule:evenodd;fill:url(#SVGID_00000023970868302461391980000002982273231441676213_);}
</style>
<g>
	<defs>
		<rect id="SVGID_1_" y="0" width="48" height="48"/>
	</defs>
	<clipPath id="SVGID_00000026154892090550810890000011149480482802713775_">
		<use xlink:href="#SVGID_1_"  style="overflow:visible;"/>
	</clipPath>
	<g style="clip-path:url(#SVGID_00000026154892090550810890000011149480482802713775_);">
		
			<linearGradient id="SVGID_00000027592936013967424750000007052542618157532849_" gradientUnits="userSpaceOnUse" x1="24" y1="45.8898" x2="24" y2="1.8898" gradientTransform="matrix(1 0 0 -1 0 47.8898)">
			<stop  offset="0" style="stop-color:#96D3FF"/>
			<stop  offset="1" style="stop-color:#0091FA"/>
		</linearGradient>
		<path style="fill:url(#SVGID_00000027592936013967424750000007052542618157532849_);" d="M12,2h24c5.5,0,10,4.5,10,10v24
			c0,5.5-4.5,10-10,10H12C6.5,46,2,41.5,2,36V12C2,6.5,6.5,2,12,2z"/>
		<g>
			
				<linearGradient id="SVGID_00000142173524462146451190000015739722267101080467_" gradientUnits="userSpaceOnUse" x1="24" y1="53.2434" x2="24" y2="13.2115" gradientTransform="matrix(1 0 0 -1 0 47.8898)">
				<stop  offset="0.6763" style="stop-color:#FFFFFF"/>
				<stop  offset="0.7323" style="stop-color:#FAFDFF"/>
				<stop  offset="0.7983" style="stop-color:#ECF7FF"/>
				<stop  offset="0.8695" style="stop-color:#D4EDFF"/>
				<stop  offset="0.9438" style="stop-color:#B3DFFF"/>
				<stop  offset="1" style="stop-color:#95D3FF"/>
			</linearGradient>
			<path style="fill-rule:evenodd;clip-rule:evenodd;fill:url(#SVGID_00000142173524462146451190000015739722267101080467_);" d="
				M11.1,20.8c0.6-0.5,0.8-1.3,0.8-2.1c0-1.3-0.8-1.8-1.9-2.1l-0.5-0.2c-0.4-0.1-0.9-0.3-0.9-0.7c0-0.4,0.5-0.7,0.9-0.7
				c0.2,0,0.4,0,0.5,0.1c0.5,0.2,1.1-0.1,1.3-0.6l0.3-0.6c0,0,0,0,0,0c-0.7-0.4-1.6-0.6-2.4-0.6c-1.6,0-2.7,1-2.7,2.6
				c0,1.5,0.8,1.8,2.1,2.2C9,18.3,9.8,18.5,9.8,19c0,0.5-0.5,0.8-1,0.8c-0.7,0-1.3-0.4-1.8-0.8l-0.9,1.6c0,0,0,0,0,0
				c0.8,0.6,1.7,0.9,2.7,0.9C9.7,21.5,10.5,21.3,11.1,20.8z M14.2,20.2v-1.6c0-0.7,0.2-1.2,1-1.2c0.9,0,0.8,0.9,0.8,1.4v2.6
				c0,0,0,0,0,0h0.7c0.6,0,1.1-0.5,1.1-1.1V18c0-1.3-0.6-2.2-2-2.2c-0.7,0-1.3,0.2-1.7,0.9c0,0,0,0,0,0l0,0c0,0,0,0,0,0V16
				c0,0,0,0,0,0h-1.9c0,0,0,0,0,0v5.3c0,0,0,0,0,0h0.7C13.7,21.3,14.2,20.8,14.2,20.2z M22.5,20.7C22.5,20.7,22.5,20.7,22.5,20.7
				C22.5,20.7,22.5,20.7,22.5,20.7l0,0.6c0,0,0,0,0,0h0.7c0.6,0,1.1-0.5,1.1-1.1V16c0,0,0,0,0,0h-1.9c0,0,0,0,0,0v0.5c0,0,0,0,0,0
				c-0.4-0.4-1-0.7-1.6-0.7c-1.6,0-2.7,1.3-2.7,2.8s1.1,2.8,2.7,2.8C21.5,21.5,22.2,21.3,22.5,20.7z M20.2,18.7
				c0-0.6,0.4-1.2,1.2-1.2c0.8,0,1.2,0.5,1.2,1.2c0,0.7-0.4,1.2-1.2,1.2C20.6,19.9,20.2,19.3,20.2,18.7z M28.5,15.8
				c-0.6,0-1.3,0.2-1.6,0.8c0,0,0,0,0,0l0,0c0,0,0,0,0,0V16H25v7.5h0.8c0.6,0,1.1-0.5,1.1-1.1v-1.6c0,0,0,0,0,0
				c0.4,0.5,1,0.7,1.6,0.7c1.6,0,2.7-1.3,2.7-2.8C31.2,17.2,30.1,15.8,28.5,15.8z M28,19.9c-0.8,0-1.2-0.5-1.2-1.2
				c0-0.6,0.4-1.2,1.2-1.2c0.8,0,1.2,0.5,1.2,1.2C29.2,19.3,28.8,19.9,28,19.9z M35,15.8c-0.6,0-1.3,0.2-1.6,0.8c0,0,0,0,0,0l0,0
				c0,0,0,0,0,0V16c0,0,0,0,0,0h-1.9c0,0,0,0,0,0v7.5c0,0,0,0,0,0h0.7c0.6,0,1.1-0.5,1.1-1.1v-1.6c0,0,0,0,0,0
				c0.4,0.4,1,0.7,1.6,0.7c1.6,0,2.7-1.3,2.7-2.8C37.7,17.2,36.6,15.8,35,15.8z M34.5,19.9c-0.8,0-1.2-0.5-1.2-1.2
				c0-0.6,0.4-1.2,1.2-1.2s1.2,0.5,1.2,1.2C35.7,19.3,35.3,19.9,34.5,19.9z M39.9,13.5l-1.3,4.9h1.1c0.5,0,1-0.3,1.1-0.8l1.1-4H39.9
				L39.9,13.5z M39.2,19.1c-0.7,0-1.2,0.5-1.2,1.2c0,0.7,0.5,1.2,1.2,1.2c0.7,0,1.2-0.5,1.2-1.2C40.4,19.6,39.9,19.1,39.2,19.1z
				 M38.7,13.6L38.7,13.6l0.1,0.4h0.1l0.1-0.4h0V14h0.1v-0.5H39l-0.1,0.3L38.7,13.6l-0.1-0.1V14h0.1V13.6z M38.2,14h0.1v-0.4h0.2
				v-0.1h-0.4v0.1h0.2V14z M9.4,24.2H6.2V32h2v-2.6h1.2c0.9,0,1.5-0.2,2-0.7c0.5-0.5,0.7-1.1,0.7-1.9s-0.2-1.5-0.7-1.9
				C11,24.5,10.3,24.2,9.4,24.2z M8.9,27.8H8.2v-1.9h0.7c0.7,0,1.1,0.3,1.1,1S9.7,27.8,8.9,27.8z M16.8,27.2c-0.4-0.5-1-0.7-1.6-0.7
				c-0.4,0-0.8,0.1-1.1,0.2c-0.3,0.1-0.6,0.4-0.8,0.6c-0.2,0.3-0.4,0.6-0.5,0.9c-0.1,0.3-0.2,0.7-0.2,1.1c0,0.4,0.1,0.8,0.2,1.1
				c0.1,0.3,0.3,0.6,0.6,0.9s0.5,0.5,0.8,0.6c0.3,0.1,0.7,0.2,1.1,0.2c0.7,0,1.2-0.3,1.6-0.8V32h1.9v-5.3h-1.9V27.2z M16.8,29.8
				c-0.1,0.1-0.2,0.3-0.3,0.4c-0.1,0.1-0.2,0.2-0.4,0.3c-0.1,0.1-0.3,0.1-0.5,0.1c-0.2,0-0.3,0-0.5-0.1c-0.1-0.1-0.3-0.1-0.4-0.3
				c-0.1-0.1-0.2-0.2-0.3-0.4c-0.1-0.1-0.1-0.3-0.1-0.5c0-0.2,0-0.3,0.1-0.5c0.1-0.1,0.1-0.3,0.3-0.4c0.1-0.1,0.2-0.2,0.4-0.3
				c0.1-0.1,0.3-0.1,0.5-0.1c0.2,0,0.3,0,0.5,0.1c0.1,0.1,0.3,0.1,0.4,0.3c0.1,0.1,0.2,0.2,0.3,0.4c0.1,0.1,0.1,0.3,0.1,0.5
				C16.9,29.5,16.9,29.7,16.8,29.8z M22.8,29.4l-1.4-2.7h-2.2l2.6,4.6L20,34.7h2.1l4.3-8h-2.2L22.8,29.4z"/>
		</g>
	</g>
</g>
<g>
	<defs>
		<rect id="SVGID_00000074438995833275335720000009108622227156633258_" x="-68" y="0" width="48" height="48"/>
	</defs>
	<clipPath id="SVGID_00000067948898021147851890000011187153307369386167_">
		<use xlink:href="#SVGID_00000074438995833275335720000009108622227156633258_"  style="overflow:visible;"/>
	</clipPath>
	<g style="clip-path:url(#SVGID_00000067948898021147851890000011187153307369386167_);">
		
			<linearGradient id="SVGID_00000146462637967802498330000002193069662550747565_" gradientUnits="userSpaceOnUse" x1="-44" y1="45.8898" x2="-44" y2="1.8898" gradientTransform="matrix(1 0 0 -1 0 47.8898)">
			<stop  offset="0" style="stop-color:#96D3FF"/>
			<stop  offset="1" style="stop-color:#0091FA"/>
		</linearGradient>
		<path style="fill:url(#SVGID_00000146462637967802498330000002193069662550747565_);" d="M-56,2h24c5.5,0,10,4.5,10,10v24
			c0,5.5-4.5,10-10,10h-24c-5.5,0-10-4.5-10-10V12C-66,6.5-61.5,2-56,2z"/>
		<g>
			
				<linearGradient id="SVGID_00000098198694947221271050000009765034114084274839_" gradientUnits="userSpaceOnUse" x1="-45.8518" y1="37.3898" x2="-45.8518" y2="8.8898" gradientTransform="matrix(1 0 0 -1 0 47.8898)">
				<stop  offset="0.6763" style="stop-color:#FFFFFF"/>
				<stop  offset="1" style="stop-color:#95D3FF"/>
			</linearGradient>
			<path style="fill:url(#SVGID_00000098198694947221271050000009765034114084274839_);" d="M-59.1,16.1c0-3.1,2.5-5.6,5.6-5.6h16.8
				c2.3,0,4.2,1.9,4.2,4.2v7.2h-7c-2.8,0-5.4,2.4-5.4,5.4v7h-8.6c-3.1,0-5.6-2.5-5.6-5.6v-1.4h7.7c2.7,0,4.9-2.2,4.9-4.9
				c0-2.7-2.2-4.9-4.9-4.9h-7.7V16.1z"/>
			
				<linearGradient id="SVGID_00000138569318499576073730000011270225153233474995_" gradientUnits="userSpaceOnUse" x1="-53.8998" y1="37.3898" x2="-53.8998" y2="8.8898" gradientTransform="matrix(1 0 0 -1 0 47.8898)">
				<stop  offset="0.6763" style="stop-color:#FFFFFF"/>
				<stop  offset="1" style="stop-color:#95D3FF"/>
			</linearGradient>
			<path style="fill-rule:evenodd;clip-rule:evenodd;fill:url(#SVGID_00000138569318499576073730000011270225153233474995_);" d="
				M-51.5,25.2h-7.7v-5.6h7.7c1.5,0,2.8,1.3,2.8,2.8C-48.7,23.9-49.9,25.2-51.5,25.2z M-52.2,23.8c0.8,0,1.4-0.6,1.4-1.4
				c0-0.8-0.6-1.4-1.4-1.4c-0.8,0-1.4,0.6-1.4,1.4C-53.5,23.2-52.9,23.8-52.2,23.8z"/>
			
				<linearGradient id="SVGID_00000027606173222574253280000012892087129993205142_" gradientUnits="userSpaceOnUse" x1="-35.8006" y1="37.3898" x2="-35.8006" y2="8.8898" gradientTransform="matrix(1 0 0 -1 0 47.8898)">
				<stop  offset="0.6763" style="stop-color:#FFFFFF"/>
				<stop  offset="1" style="stop-color:#95D3FF"/>
			</linearGradient>
			<path style="fill:url(#SVGID_00000027606173222574253280000012892087129993205142_);" d="M-35.8,32.6c0.5,0,0.9-0.4,0.9-0.9
				c0-0.5-0.4-0.9-0.9-0.9c-0.5,0-0.9,0.4-0.9,0.9C-36.7,32.2-36.3,32.6-35.8,32.6z"/>
			
				<linearGradient id="SVGID_00000080891065971471678850000008959454543597789336_" gradientUnits="userSpaceOnUse" x1="-38.5694" y1="37.3898" x2="-38.5694" y2="8.8898" gradientTransform="matrix(1 0 0 -1 0 47.8898)">
				<stop  offset="0.6763" style="stop-color:#FFFFFF"/>
				<stop  offset="1" style="stop-color:#95D3FF"/>
			</linearGradient>
			<path style="fill:url(#SVGID_00000080891065971471678850000008959454543597789336_);" d="M-38.6,32.6c0.5,0,0.9-0.4,0.9-0.9
				c0-0.5-0.4-0.9-0.9-0.9s-0.9,0.4-0.9,0.9C-39.5,32.2-39.1,32.6-38.6,32.6z"/>
			
				<linearGradient id="SVGID_00000013911410885033573910000014724514078817055676_" gradientUnits="userSpaceOnUse" x1="-38.5694" y1="37.3898" x2="-38.5694" y2="8.8898" gradientTransform="matrix(1 0 0 -1 0 47.8898)">
				<stop  offset="0.6763" style="stop-color:#FFFFFF"/>
				<stop  offset="1" style="stop-color:#95D3FF"/>
			</linearGradient>
			<path style="fill:url(#SVGID_00000013911410885033573910000014724514078817055676_);" d="M-37.6,34.4c0,0.5-0.4,0.9-0.9,0.9
				s-0.9-0.4-0.9-0.9s0.4-0.9,0.9-0.9S-37.6,33.9-37.6,34.4z"/>
			
				<linearGradient id="SVGID_00000111897432305895157640000011283405201130145170_" gradientUnits="userSpaceOnUse" x1="-34.9995" y1="37.3898" x2="-34.9995" y2="8.8898" gradientTransform="matrix(1 0 0 -1 0 47.8898)">
				<stop  offset="0.6763" style="stop-color:#FFFFFF"/>
				<stop  offset="1" style="stop-color:#95D3FF"/>
			</linearGradient>
			<path style="fill-rule:evenodd;clip-rule:evenodd;fill:url(#SVGID_00000111897432305895157640000011283405201130145170_);" d="
				M-39.6,24.7c0-0.5,0.4-0.9,0.9-0.9c0.5,0,0.9,0.4,0.9,0.9v1h5.5v-1c0-0.5,0.4-0.9,0.9-0.9s0.9,0.4,0.9,0.9v1h0.9
				c1.3,0,1.8,0.9,1.8,1.8v9.6c0,1-0.8,1.8-1.8,1.8h-11.1c-1,0-1.8-0.8-1.8-1.8v-9.6c0-1,0.8-1.8,1.8-1.8h0.9V24.7z M-29.5,29.6
				h-11.1v7.6h11.1V29.6z"/>
		</g>
	</g>
</g>
</svg>
